<?xml version="1.0" encoding="utf-8" standalone="no"?>
<!DOCTYPE svg PUBLIC "-//W3C//DTD SVG 1.1//EN"
  "http://www.w3.org/Graphics/SVG/1.1/DTD/svg11.dtd">
<!-- Created with matplotlib (https://matplotlib.org/) -->
<svg height="252pt" version="1.1" viewBox="0 0 252 252" width="252pt" xmlns="http://www.w3.org/2000/svg" xmlns:xlink="http://www.w3.org/1999/xlink">
 <metadata>
  <rdf:RDF xmlns:cc="http://creativecommons.org/ns#" xmlns:dc="http://purl.org/dc/elements/1.1/" xmlns:rdf="http://www.w3.org/1999/02/22-rdf-syntax-ns#">
   <cc:Work>
    <dc:type rdf:resource="http://purl.org/dc/dcmitype/StillImage"/>
    <dc:date>2022-01-20T07:20:42.680858</dc:date>
    <dc:format>image/svg+xml</dc:format>
    <dc:creator>
     <cc:Agent>
      <dc:title>Matplotlib v3.3.3, https://matplotlib.org/</dc:title>
     </cc:Agent>
    </dc:creator>
   </cc:Work>
  </rdf:RDF>
 </metadata>
 <defs>
  <style type="text/css">*{stroke-linecap:butt;stroke-linejoin:round;}</style>
 </defs>
 <g id="figure_1">
  <g id="patch_1">
   <path d="M 0 252 
L 252 252 
L 252 0 
L 0 0 
z
" style="fill:#ffffff;"/>
  </g>
  <g id="axes_1">
   <g id="patch_2">
    <path d="M 33.86 220.84 
L 252 220.84 
L 252 16.08 
L 33.86 16.08 
z
" style="fill:#ffffff;"/>
   </g>
   <g id="PolyCollection_1">
    <path clip-path="url(#pf5e243c721)" d="M 43.775455 220.84 
L 43.775455 220.84 
L 45.738911 166.570397 
L 47.702367 140.471001 
L 49.665824 109.680717 
L 51.62928 98.59166 
L 53.592736 88.544548 
L 55.556193 84.48247 
L 57.519649 74.901839 
L 59.483105 81.548478 
L 61.446562 59.407768 
L 63.410018 77.600893 
L 65.373474 69.20357 
L 67.336931 63.056602 
L 69.300387 72.77086 
L 71.263843 77.242972 
L 73.2273 58.996444 
L 75.190756 70.602294 
L 77.154212 61.50414 
L 79.117669 58.002917 
L 81.081125 67.457384 
L 83.044581 69.771133 
L 85.008038 65.96915 
L 86.971494 66.583381 
L 88.93495 74.806312 
L 90.898407 68.832571 
L 92.861863 72.624557 
L 94.82532 67.067888 
L 96.788776 73.633862 
L 98.752232 66.980839 
L 100.715689 66.815394 
L 102.679145 74.816019 
L 104.642601 69.265278 
L 106.606058 71.119479 
L 108.569514 71.219328 
L 110.53297 68.608289 
L 112.496427 76.972109 
L 114.459883 69.213966 
L 116.423339 79.852403 
L 118.386796 72.423976 
L 120.350252 80.697344 
L 122.313708 76.56855 
L 124.277165 77.219991 
L 126.240621 77.498342 
L 128.204077 78.579075 
L 130.167534 77.498816 
L 132.13099 75.425045 
L 134.094446 73.213729 
L 136.057903 78.993975 
L 138.021359 75.313213 
L 139.984815 74.046407 
L 141.948272 82.270176 
L 143.911728 69.996778 
L 145.875185 85.119975 
L 147.838641 75.01357 
L 149.802097 74.850759 
L 151.765554 69.795481 
L 153.72901 73.329484 
L 155.692466 73.60026 
L 157.655923 63.185227 
L 159.619379 76.339701 
L 161.582835 62.8398 
L 163.546292 80.222398 
L 165.509748 76.670496 
L 167.473204 82.677113 
L 169.436661 76.581364 
L 171.400117 64.25004 
L 173.363573 74.526023 
L 175.32703 68.391851 
L 177.290486 64.556808 
L 179.253942 79.418387 
L 181.217399 71.882402 
L 183.180855 82.619061 
L 185.144311 66.067767 
L 187.107768 73.13871 
L 189.071224 78.683446 
L 191.03468 70.676492 
L 192.998137 78.663771 
L 194.961593 75.110269 
L 196.92505 74.711209 
L 198.888506 73.685206 
L 200.851962 74.020681 
L 202.815419 76.131681 
L 204.778875 64.787628 
L 206.742331 80.26571 
L 208.705788 77.237342 
L 210.669244 82.214325 
L 212.6327 66.211462 
L 214.596157 78.404535 
L 216.559613 76.7671 
L 218.523069 73.27842 
L 220.486526 82.083513 
L 222.449982 74.986213 
L 224.413438 82.300039 
L 226.376895 70.903209 
L 228.340351 66.298817 
L 230.303807 79.09317 
L 232.267264 82.558289 
L 234.23072 68.485601 
L 236.194176 73.286391 
L 238.157633 65.403513 
L 240.121089 78.202454 
L 242.084545 75.309461 
L 242.084545 97.812147 
L 242.084545 97.812147 
L 240.121089 93.29657 
L 238.157633 100.758513 
L 236.194176 90.461115 
L 234.23072 91.621709 
L 232.267264 88.974876 
L 230.303807 92.832974 
L 228.340351 102.067241 
L 226.376895 93.469635 
L 224.413438 93.939681 
L 222.449982 92.53488 
L 220.486526 89.614439 
L 218.523069 94.34471 
L 216.559613 91.998726 
L 214.596157 89.925823 
L 212.6327 91.93666 
L 210.669244 92.521827 
L 208.705788 96.657318 
L 206.742331 98.859163 
L 204.778875 92.488515 
L 202.815419 95.260764 
L 200.851962 101.666352 
L 198.888506 91.660475 
L 196.92505 92.305649 
L 194.961593 90.683543 
L 192.998137 96.367471 
L 191.03468 91.000354 
L 189.071224 91.313693 
L 187.107768 98.153781 
L 185.144311 91.206586 
L 183.180855 94.749306 
L 181.217399 96.338039 
L 179.253942 95.019365 
L 177.290486 98.854345 
L 175.32703 92.925869 
L 173.363573 95.903411 
L 171.400117 95.35052 
L 169.436661 96.356395 
L 167.473204 95.413895 
L 165.509748 88.82541 
L 163.546292 94.046031 
L 161.582835 98.269094 
L 159.619379 99.277664 
L 157.655923 94.823186 
L 155.692466 89.354738 
L 153.72901 90.881059 
L 151.765554 86.401463 
L 149.802097 92.796822 
L 147.838641 90.49179 
L 145.875185 96.386792 
L 143.911728 96.424927 
L 141.948272 98.254585 
L 139.984815 93.344317 
L 138.021359 93.005709 
L 136.057903 95.850997 
L 134.094446 89.655361 
L 132.13099 88.780394 
L 130.167534 91.21931 
L 128.204077 93.456013 
L 126.240621 88.81485 
L 124.277165 97.056996 
L 122.313708 91.684142 
L 120.350252 86.623151 
L 118.386796 93.733192 
L 116.423339 93.404946 
L 114.459883 94.879228 
L 112.496427 90.052219 
L 110.53297 94.018778 
L 108.569514 95.811105 
L 106.606058 99.771462 
L 104.642601 89.573618 
L 102.679145 87.33796 
L 100.715689 94.63386 
L 98.752232 79.989965 
L 96.788776 91.84972 
L 94.82532 83.854871 
L 92.861863 93.77042 
L 90.898407 94.390739 
L 88.93495 92.254027 
L 86.971494 87.703126 
L 85.008038 81.378895 
L 83.044581 86.902496 
L 81.081125 89.201308 
L 79.117669 94.437506 
L 77.154212 87.828021 
L 75.190756 84.467062 
L 73.2273 78.826343 
L 71.263843 82.473905 
L 69.300387 88.934912 
L 67.336931 84.516889 
L 65.373474 88.899302 
L 63.410018 85.660954 
L 61.446562 90.182571 
L 59.483105 95.906546 
L 57.519649 98.179915 
L 55.556193 101.505972 
L 53.592736 108.846687 
L 51.62928 121.759107 
L 49.665824 132.475206 
L 47.702367 155.216786 
L 45.738911 180.115716 
L 43.775455 220.84 
z
" style="fill:#1f77b4;fill-opacity:0.2;"/>
   </g>
   <g id="PolyCollection_2">
    <path clip-path="url(#pf5e243c721)" d="M 43.775455 220.84 
L 43.775455 220.84 
L 45.738911 172.480974 
L 47.702367 145.406526 
L 49.665824 123.781915 
L 51.62928 109.984827 
L 53.592736 101.568117 
L 55.556193 89.549751 
L 57.519649 82.118552 
L 59.483105 84.276305 
L 61.446562 81.522634 
L 63.410018 79.85935 
L 65.373474 81.959419 
L 67.336931 79.02329 
L 69.300387 73.661492 
L 71.263843 73.458866 
L 73.2273 74.549272 
L 75.190756 71.962374 
L 77.154212 73.60362 
L 79.117669 68.400309 
L 81.081125 72.074233 
L 83.044581 78.818738 
L 85.008038 71.981891 
L 86.971494 77.87388 
L 88.93495 74.985549 
L 90.898407 73.768085 
L 92.861863 76.865519 
L 94.82532 72.323437 
L 96.788776 78.110971 
L 98.752232 71.375554 
L 100.715689 77.339921 
L 102.679145 78.396795 
L 104.642601 79.706057 
L 106.606058 77.561535 
L 108.569514 75.433566 
L 110.53297 75.441406 
L 112.496427 81.673313 
L 114.459883 78.272511 
L 116.423339 78.650111 
L 118.386796 81.160112 
L 120.350252 80.788585 
L 122.313708 79.546331 
L 124.277165 81.772462 
L 126.240621 82.289808 
L 128.204077 83.680789 
L 130.167534 81.348355 
L 132.13099 78.373913 
L 134.094446 82.100238 
L 136.057903 78.560143 
L 138.021359 76.526305 
L 139.984815 76.518378 
L 141.948272 78.497318 
L 143.911728 78.137658 
L 145.875185 76.089731 
L 147.838641 78.159894 
L 149.802097 74.521359 
L 151.765554 79.610287 
L 153.72901 80.974639 
L 155.692466 79.733183 
L 157.655923 78.792867 
L 159.619379 78.478282 
L 161.582835 78.208708 
L 163.546292 76.026812 
L 165.509748 77.344297 
L 167.473204 76.018061 
L 169.436661 76.349674 
L 171.400117 78.322344 
L 173.363573 79.528733 
L 175.32703 80.11711 
L 177.290486 79.792603 
L 179.253942 78.615166 
L 181.217399 76.620961 
L 183.180855 76.82352 
L 185.144311 81.248895 
L 187.107768 76.631564 
L 189.071224 77.55451 
L 191.03468 76.420023 
L 192.998137 77.169059 
L 194.961593 74.491974 
L 196.92505 75.47032 
L 198.888506 77.794295 
L 200.851962 73.657787 
L 202.815419 75.663117 
L 204.778875 77.568418 
L 206.742331 76.424991 
L 208.705788 78.486037 
L 210.669244 80.141726 
L 212.6327 77.425296 
L 214.596157 73.664898 
L 216.559613 77.353648 
L 218.523069 74.163193 
L 220.486526 73.573665 
L 222.449982 77.804646 
L 224.413438 80.486501 
L 226.376895 75.638858 
L 228.340351 80.338562 
L 230.303807 78.21367 
L 232.267264 73.342485 
L 234.23072 78.459255 
L 236.194176 74.978863 
L 238.157633 74.980472 
L 240.121089 73.061125 
L 242.084545 79.532485 
L 242.084545 86.578304 
L 242.084545 86.578304 
L 240.121089 85.990222 
L 238.157633 84.735894 
L 236.194176 83.882988 
L 234.23072 81.378345 
L 232.267264 85.376897 
L 230.303807 81.176453 
L 228.340351 82.217549 
L 226.376895 84.259621 
L 224.413438 85.826109 
L 222.449982 88.134893 
L 220.486526 83.909371 
L 218.523069 88.364857 
L 216.559613 86.084129 
L 214.596157 85.899064 
L 212.6327 86.136831 
L 210.669244 87.43068 
L 208.705788 86.469602 
L 206.742331 87.851479 
L 204.778875 85.20296 
L 202.815419 84.02849 
L 200.851962 87.681054 
L 198.888506 86.577527 
L 196.92505 86.793278 
L 194.961593 84.22246 
L 192.998137 83.371862 
L 191.03468 89.333497 
L 189.071224 88.601124 
L 187.107768 89.269293 
L 185.144311 85.186553 
L 183.180855 86.326471 
L 181.217399 85.912788 
L 179.253942 87.750492 
L 177.290486 87.328405 
L 175.32703 90.276484 
L 173.363573 86.230308 
L 171.400117 87.341611 
L 169.436661 87.339223 
L 167.473204 85.789871 
L 165.509748 87.867488 
L 163.546292 86.483987 
L 161.582835 85.631069 
L 159.619379 87.924489 
L 157.655923 90.045106 
L 155.692466 87.09514 
L 153.72901 85.10686 
L 151.765554 85.527866 
L 149.802097 85.9241 
L 147.838641 89.767205 
L 145.875185 85.346854 
L 143.911728 87.353038 
L 141.948272 88.749866 
L 139.984815 88.842346 
L 138.021359 90.935617 
L 136.057903 90.168374 
L 134.094446 84.070674 
L 132.13099 88.427084 
L 130.167534 87.924802 
L 128.204077 86.519215 
L 126.240621 86.977443 
L 124.277165 89.563918 
L 122.313708 86.596151 
L 120.350252 87.935151 
L 118.386796 88.747724 
L 116.423339 90.528183 
L 114.459883 90.832444 
L 112.496427 90.659773 
L 110.53297 89.716423 
L 108.569514 87.023229 
L 106.606058 83.322713 
L 104.642601 87.200516 
L 102.679145 82.232041 
L 100.715689 85.24238 
L 98.752232 84.92887 
L 96.788776 85.132352 
L 94.82532 84.912298 
L 92.861863 86.891731 
L 90.898407 81.116913 
L 88.93495 87.374226 
L 86.971494 87.250622 
L 85.008038 79.955691 
L 83.044581 82.784352 
L 81.081125 82.704953 
L 79.117669 84.478993 
L 77.154212 88.035603 
L 75.190756 84.108375 
L 73.2273 84.577829 
L 71.263843 85.397791 
L 69.300387 84.386092 
L 67.336931 88.214252 
L 65.373474 92.252636 
L 63.410018 87.636206 
L 61.446562 91.698362 
L 59.483105 90.103248 
L 57.519649 97.306489 
L 55.556193 101.809639 
L 53.592736 108.252136 
L 51.62928 121.718929 
L 49.665824 136.921068 
L 47.702367 157.634498 
L 45.738911 178.83524 
L 43.775455 220.84 
z
" style="fill:#ff7f0e;fill-opacity:0.2;"/>
   </g>
   <g id="PolyCollection_3">
    <path clip-path="url(#pf5e243c721)" d="M 43.775455 220.84 
L 43.775455 220.84 
L 45.738911 166.570397 
L 47.702367 130.49021 
L 49.665824 109.14834 
L 51.62928 88.401378 
L 53.592736 85.205401 
L 55.556193 76.545 
L 57.519649 66.009486 
L 59.483105 61.674968 
L 61.446562 57.696054 
L 63.410018 57.834922 
L 65.373474 65.134004 
L 67.336931 60.596779 
L 69.300387 55.392624 
L 71.263843 56.316611 
L 73.2273 48.796932 
L 75.190756 55.717713 
L 77.154212 54.219964 
L 79.117669 55.755028 
L 81.081125 46.60779 
L 83.044581 47.898194 
L 85.008038 51.050156 
L 86.971494 47.156364 
L 88.93495 52.369267 
L 90.898407 45.201335 
L 92.861863 51.489176 
L 94.82532 47.578927 
L 96.788776 54.834074 
L 98.752232 51.658277 
L 100.715689 49.086771 
L 102.679145 53.89759 
L 104.642601 47.239735 
L 106.606058 42.020504 
L 108.569514 47.078653 
L 110.53297 46.126892 
L 112.496427 43.581816 
L 114.459883 32.315993 
L 116.423339 41.331868 
L 118.386796 53.675554 
L 120.350252 50.396395 
L 122.313708 51.218505 
L 124.277165 50.016749 
L 126.240621 47.689675 
L 128.204077 45.292837 
L 130.167534 43.673503 
L 132.13099 55.883019 
L 134.094446 56.240521 
L 136.057903 47.116777 
L 138.021359 51.032554 
L 139.984815 53.385187 
L 141.948272 56.249664 
L 143.911728 47.843938 
L 145.875185 52.822462 
L 147.838641 55.101955 
L 149.802097 58.161992 
L 151.765554 53.412931 
L 153.72901 50.19463 
L 155.692466 53.97544 
L 157.655923 43.996187 
L 159.619379 50.574388 
L 161.582835 51.264778 
L 163.546292 51.673555 
L 165.509748 51.205856 
L 167.473204 45.40842 
L 169.436661 49.609617 
L 171.400117 56.267748 
L 173.363573 53.905538 
L 175.32703 55.97268 
L 177.290486 55.5387 
L 179.253942 52.327979 
L 181.217399 51.365824 
L 183.180855 51.375456 
L 185.144311 60.476605 
L 187.107768 52.250675 
L 189.071224 57.001599 
L 191.03468 57.354778 
L 192.998137 53.704351 
L 194.961593 56.093227 
L 196.92505 59.471289 
L 198.888506 54.26625 
L 200.851962 58.159201 
L 202.815419 61.973399 
L 204.778875 66.497021 
L 206.742331 59.222494 
L 208.705788 64.626552 
L 210.669244 62.746216 
L 212.6327 57.212823 
L 214.596157 57.220469 
L 216.559613 63.917641 
L 218.523069 54.52642 
L 220.486526 55.349612 
L 222.449982 64.654651 
L 224.413438 47.258842 
L 226.376895 52.700928 
L 228.340351 51.095818 
L 230.303807 61.5559 
L 232.267264 56.871816 
L 234.23072 54.772651 
L 236.194176 58.956069 
L 238.157633 54.192208 
L 240.121089 60.548463 
L 242.084545 66.320571 
L 242.084545 76.835582 
L 242.084545 76.835582 
L 240.121089 76.512091 
L 238.157633 76.139908 
L 236.194176 68.455247 
L 234.23072 70.349081 
L 232.267264 73.708822 
L 230.303807 72.310943 
L 228.340351 72.553377 
L 226.376895 70.548843 
L 224.413438 66.927076 
L 222.449982 71.76751 
L 220.486526 75.277056 
L 218.523069 66.643719 
L 216.559613 72.476218 
L 214.596157 67.781986 
L 212.6327 65.549361 
L 210.669244 71.128522 
L 208.705788 68.032542 
L 206.742331 74.294913 
L 204.778875 71.767778 
L 202.815419 68.086497 
L 200.851962 66.104417 
L 198.888506 64.12479 
L 196.92505 64.106064 
L 194.961593 67.178609 
L 192.998137 68.774454 
L 191.03468 67.13782 
L 189.071224 64.699672 
L 187.107768 63.488621 
L 185.144311 61.7934 
L 183.180855 66.087207 
L 181.217399 67.075296 
L 179.253942 64.671752 
L 177.290486 71.198107 
L 175.32703 65.767971 
L 173.363573 66.033507 
L 171.400117 67.959194 
L 169.436661 66.269166 
L 167.473204 65.656986 
L 165.509748 69.356422 
L 163.546292 65.823766 
L 161.582835 63.406641 
L 159.619379 62.675229 
L 157.655923 60.730173 
L 155.692466 61.230576 
L 153.72901 58.923765 
L 151.765554 69.227691 
L 149.802097 67.372223 
L 147.838641 66.293414 
L 145.875185 58.198966 
L 143.911728 59.643338 
L 141.948272 60.221332 
L 139.984815 62.935363 
L 138.021359 64.24571 
L 136.057903 57.358849 
L 134.094446 61.728615 
L 132.13099 59.261074 
L 130.167534 57.929413 
L 128.204077 57.911515 
L 126.240621 57.320549 
L 124.277165 59.169284 
L 122.313708 63.26552 
L 120.350252 63.162564 
L 118.386796 58.059996 
L 116.423339 55.674596 
L 114.459883 59.675024 
L 112.496427 57.945394 
L 110.53297 52.130191 
L 108.569514 55.664304 
L 106.606058 57.127264 
L 104.642601 59.302761 
L 102.679145 55.145331 
L 100.715689 61.281619 
L 98.752232 60.89645 
L 96.788776 62.68433 
L 94.82532 52.580018 
L 92.861863 59.965123 
L 90.898407 57.744753 
L 88.93495 56.847428 
L 86.971494 53.650018 
L 85.008038 61.747746 
L 83.044581 62.327199 
L 81.081125 58.008563 
L 79.117669 62.591753 
L 77.154212 64.020679 
L 75.190756 63.997566 
L 73.2273 62.427907 
L 71.263843 60.6427 
L 69.300387 69.41516 
L 67.336931 66.824256 
L 65.373474 66.149703 
L 63.410018 69.60154 
L 61.446562 67.125145 
L 59.483105 71.633807 
L 57.519649 81.422146 
L 55.556193 81.779509 
L 53.592736 98.310793 
L 51.62928 110.917863 
L 49.665824 127.663714 
L 47.702367 154.731454 
L 45.738911 180.115716 
L 43.775455 220.84 
z
" style="fill:#2ca02c;fill-opacity:0.2;"/>
   </g>
   <g id="PolyCollection_4">
    <path clip-path="url(#pf5e243c721)" d="M 43.775455 220.84 
L 43.775455 220.84 
L 45.738911 172.480974 
L 47.702367 145.397724 
L 49.665824 124.991731 
L 51.62928 100.397399 
L 53.592736 94.376497 
L 55.556193 82.525079 
L 57.519649 74.394819 
L 59.483105 76.307953 
L 61.446562 68.442823 
L 63.410018 64.323665 
L 65.373474 58.796423 
L 67.336931 64.367087 
L 69.300387 59.275807 
L 71.263843 60.670756 
L 73.2273 59.607883 
L 75.190756 55.031854 
L 77.154212 52.377206 
L 79.117669 51.710021 
L 81.081125 51.158432 
L 83.044581 54.490774 
L 85.008038 48.624128 
L 86.971494 52.651134 
L 88.93495 49.646426 
L 90.898407 52.459883 
L 92.861863 48.864037 
L 94.82532 50.8123 
L 96.788776 43.785192 
L 98.752232 49.287061 
L 100.715689 48.220639 
L 102.679145 51.247065 
L 104.642601 49.272001 
L 106.606058 43.766446 
L 108.569514 49.681548 
L 110.53297 47.90867 
L 112.496427 52.230969 
L 114.459883 47.787988 
L 116.423339 49.907662 
L 118.386796 49.882924 
L 120.350252 44.176844 
L 122.313708 46.883284 
L 124.277165 42.054844 
L 126.240621 44.018155 
L 128.204077 46.356981 
L 130.167534 43.795339 
L 132.13099 41.062912 
L 134.094446 45.588074 
L 136.057903 42.153659 
L 138.021359 43.576115 
L 139.984815 43.545982 
L 141.948272 42.665417 
L 143.911728 41.067443 
L 145.875185 43.23958 
L 147.838641 45.576196 
L 149.802097 43.312442 
L 151.765554 42.829828 
L 153.72901 36.668661 
L 155.692466 44.261413 
L 157.655923 46.136256 
L 159.619379 41.345767 
L 161.582835 42.292632 
L 163.546292 47.110465 
L 165.509748 47.739156 
L 167.473204 46.150455 
L 169.436661 48.983231 
L 171.400117 42.453942 
L 173.363573 46.785567 
L 175.32703 44.212505 
L 177.290486 46.170253 
L 179.253942 39.478386 
L 181.217399 45.30628 
L 183.180855 48.814515 
L 185.144311 42.641606 
L 187.107768 43.82973 
L 189.071224 47.066061 
L 191.03468 47.462393 
L 192.998137 48.870552 
L 194.961593 45.641319 
L 196.92505 48.240885 
L 198.888506 48.290565 
L 200.851962 49.131956 
L 202.815419 46.484564 
L 204.778875 49.108265 
L 206.742331 50.83624 
L 208.705788 42.969714 
L 210.669244 52.472112 
L 212.6327 48.147148 
L 214.596157 46.214058 
L 216.559613 47.107961 
L 218.523069 48.902229 
L 220.486526 49.969531 
L 222.449982 50.201173 
L 224.413438 50.75443 
L 226.376895 47.307627 
L 228.340351 51.444515 
L 230.303807 51.228939 
L 232.267264 48.086295 
L 234.23072 49.412533 
L 236.194176 47.000743 
L 238.157633 47.820602 
L 240.121089 50.683431 
L 242.084545 49.098824 
L 242.084545 67.18297 
L 242.084545 67.18297 
L 240.121089 63.031346 
L 238.157633 63.404355 
L 236.194176 59.531927 
L 234.23072 60.847909 
L 232.267264 57.923046 
L 230.303807 61.252752 
L 228.340351 60.556194 
L 226.376895 63.550292 
L 224.413438 59.509224 
L 222.449982 62.240007 
L 220.486526 57.158459 
L 218.523069 58.070016 
L 216.559613 59.713946 
L 214.596157 61.101838 
L 212.6327 62.207551 
L 210.669244 59.407024 
L 208.705788 59.337263 
L 206.742331 62.058499 
L 204.778875 57.319666 
L 202.815419 62.64725 
L 200.851962 61.015991 
L 198.888506 57.360565 
L 196.92505 57.308139 
L 194.961593 55.464139 
L 192.998137 55.576737 
L 191.03468 58.147331 
L 189.071224 56.428158 
L 187.107768 55.432454 
L 185.144311 56.610706 
L 183.180855 54.509596 
L 181.217399 61.48259 
L 179.253942 58.481565 
L 177.290486 56.74712 
L 175.32703 55.198506 
L 173.363573 58.984395 
L 171.400117 57.914799 
L 169.436661 57.906488 
L 167.473204 57.888232 
L 165.509748 54.907695 
L 163.546292 57.98621 
L 161.582835 55.002851 
L 159.619379 61.885159 
L 157.655923 59.90121 
L 155.692466 59.454797 
L 153.72901 57.665189 
L 151.765554 56.840177 
L 149.802097 56.763657 
L 147.838641 56.883687 
L 145.875185 57.544465 
L 143.911728 55.854977 
L 141.948272 52.993437 
L 139.984815 58.630773 
L 138.021359 56.798998 
L 136.057903 53.559151 
L 134.094446 51.497587 
L 132.13099 56.862063 
L 130.167534 58.051174 
L 128.204077 56.782562 
L 126.240621 56.027453 
L 124.277165 60.052277 
L 122.313708 56.62059 
L 120.350252 61.476309 
L 118.386796 58.763719 
L 116.423339 62.722868 
L 114.459883 59.498462 
L 112.496427 59.811348 
L 110.53297 59.952713 
L 108.569514 59.489801 
L 106.606058 60.770028 
L 104.642601 61.353424 
L 102.679145 62.042956 
L 100.715689 60.677428 
L 98.752232 61.348631 
L 96.788776 63.403172 
L 94.82532 61.175194 
L 92.861863 64.646946 
L 90.898407 66.233664 
L 88.93495 64.02552 
L 86.971494 63.237435 
L 85.008038 67.890029 
L 83.044581 69.140068 
L 81.081125 66.945056 
L 79.117669 73.370603 
L 77.154212 65.993658 
L 75.190756 68.75958 
L 73.2273 71.427183 
L 71.263843 71.614378 
L 69.300387 71.312569 
L 67.336931 72.668062 
L 65.373474 74.836347 
L 63.410018 72.781455 
L 61.446562 77.40334 
L 59.483105 80.744013 
L 57.519649 81.504615 
L 55.556193 92.772953 
L 53.592736 99.267435 
L 51.62928 117.325306 
L 49.665824 136.869252 
L 47.702367 157.428366 
L 45.738911 178.83524 
L 43.775455 220.84 
z
" style="fill:#d62728;fill-opacity:0.2;"/>
   </g>
   <g id="matplotlib.axis_1">
    <g id="xtick_1">
     <g id="line2d_1">
      <path clip-path="url(#pf5e243c721)" d="M 43.775455 220.84 
L 43.775455 16.08 
" style="fill:none;stroke:#b0b0b0;stroke-linecap:square;stroke-width:0.8;"/>
     </g>
     <g id="line2d_2">
      <defs>
       <path d="M 0 0 
L 0 3.5 
" id="mf7364cd9c3" style="stroke:#000000;stroke-width:0.8;"/>
      </defs>
      <g>
       <use style="stroke:#000000;stroke-width:0.8;" x="43.775455" xlink:href="#mf7364cd9c3" y="220.84"/>
      </g>
     </g>
     <g id="text_1">
      <!-- 0 -->
      <g transform="translate(40.594205 235.438437)scale(0.1 -0.1)">
       <defs>
        <path d="M 31.78125 66.40625 
Q 24.171875 66.40625 20.328125 58.90625 
Q 16.5 51.421875 16.5 36.375 
Q 16.5 21.390625 20.328125 13.890625 
Q 24.171875 6.390625 31.78125 6.390625 
Q 39.453125 6.390625 43.28125 13.890625 
Q 47.125 21.390625 47.125 36.375 
Q 47.125 51.421875 43.28125 58.90625 
Q 39.453125 66.40625 31.78125 66.40625 
z
M 31.78125 74.21875 
Q 44.046875 74.21875 50.515625 64.515625 
Q 56.984375 54.828125 56.984375 36.375 
Q 56.984375 17.96875 50.515625 8.265625 
Q 44.046875 -1.421875 31.78125 -1.421875 
Q 19.53125 -1.421875 13.0625 8.265625 
Q 6.59375 17.96875 6.59375 36.375 
Q 6.59375 54.828125 13.0625 64.515625 
Q 19.53125 74.21875 31.78125 74.21875 
z
" id="DejaVuSans-48"/>
       </defs>
       <use xlink:href="#DejaVuSans-48"/>
      </g>
     </g>
    </g>
    <g id="xtick_2">
     <g id="line2d_3">
      <path clip-path="url(#pf5e243c721)" d="M 83.044581 220.84 
L 83.044581 16.08 
" style="fill:none;stroke:#b0b0b0;stroke-linecap:square;stroke-width:0.8;"/>
     </g>
     <g id="line2d_4">
      <g>
       <use style="stroke:#000000;stroke-width:0.8;" x="83.044581" xlink:href="#mf7364cd9c3" y="220.84"/>
      </g>
     </g>
     <g id="text_2">
      <!-- 20 -->
      <g transform="translate(76.682081 235.438437)scale(0.1 -0.1)">
       <defs>
        <path d="M 19.1875 8.296875 
L 53.609375 8.296875 
L 53.609375 0 
L 7.328125 0 
L 7.328125 8.296875 
Q 12.9375 14.109375 22.625 23.890625 
Q 32.328125 33.6875 34.8125 36.53125 
Q 39.546875 41.84375 41.421875 45.53125 
Q 43.3125 49.21875 43.3125 52.78125 
Q 43.3125 58.59375 39.234375 62.25 
Q 35.15625 65.921875 28.609375 65.921875 
Q 23.96875 65.921875 18.8125 64.3125 
Q 13.671875 62.703125 7.8125 59.421875 
L 7.8125 69.390625 
Q 13.765625 71.78125 18.9375 73 
Q 24.125 74.21875 28.421875 74.21875 
Q 39.75 74.21875 46.484375 68.546875 
Q 53.21875 62.890625 53.21875 53.421875 
Q 53.21875 48.921875 51.53125 44.890625 
Q 49.859375 40.875 45.40625 35.40625 
Q 44.1875 33.984375 37.640625 27.21875 
Q 31.109375 20.453125 19.1875 8.296875 
z
" id="DejaVuSans-50"/>
       </defs>
       <use xlink:href="#DejaVuSans-50"/>
       <use x="63.623047" xlink:href="#DejaVuSans-48"/>
      </g>
     </g>
    </g>
    <g id="xtick_3">
     <g id="line2d_5">
      <path clip-path="url(#pf5e243c721)" d="M 122.313708 220.84 
L 122.313708 16.08 
" style="fill:none;stroke:#b0b0b0;stroke-linecap:square;stroke-width:0.8;"/>
     </g>
     <g id="line2d_6">
      <g>
       <use style="stroke:#000000;stroke-width:0.8;" x="122.313708" xlink:href="#mf7364cd9c3" y="220.84"/>
      </g>
     </g>
     <g id="text_3">
      <!-- 40 -->
      <g transform="translate(115.951208 235.438437)scale(0.1 -0.1)">
       <defs>
        <path d="M 37.796875 64.3125 
L 12.890625 25.390625 
L 37.796875 25.390625 
z
M 35.203125 72.90625 
L 47.609375 72.90625 
L 47.609375 25.390625 
L 58.015625 25.390625 
L 58.015625 17.1875 
L 47.609375 17.1875 
L 47.609375 0 
L 37.796875 0 
L 37.796875 17.1875 
L 4.890625 17.1875 
L 4.890625 26.703125 
z
" id="DejaVuSans-52"/>
       </defs>
       <use xlink:href="#DejaVuSans-52"/>
       <use x="63.623047" xlink:href="#DejaVuSans-48"/>
      </g>
     </g>
    </g>
    <g id="xtick_4">
     <g id="line2d_7">
      <path clip-path="url(#pf5e243c721)" d="M 161.582835 220.84 
L 161.582835 16.08 
" style="fill:none;stroke:#b0b0b0;stroke-linecap:square;stroke-width:0.8;"/>
     </g>
     <g id="line2d_8">
      <g>
       <use style="stroke:#000000;stroke-width:0.8;" x="161.582835" xlink:href="#mf7364cd9c3" y="220.84"/>
      </g>
     </g>
     <g id="text_4">
      <!-- 60 -->
      <g transform="translate(155.220335 235.438437)scale(0.1 -0.1)">
       <defs>
        <path d="M 33.015625 40.375 
Q 26.375 40.375 22.484375 35.828125 
Q 18.609375 31.296875 18.609375 23.390625 
Q 18.609375 15.53125 22.484375 10.953125 
Q 26.375 6.390625 33.015625 6.390625 
Q 39.65625 6.390625 43.53125 10.953125 
Q 47.40625 15.53125 47.40625 23.390625 
Q 47.40625 31.296875 43.53125 35.828125 
Q 39.65625 40.375 33.015625 40.375 
z
M 52.59375 71.296875 
L 52.59375 62.3125 
Q 48.875 64.0625 45.09375 64.984375 
Q 41.3125 65.921875 37.59375 65.921875 
Q 27.828125 65.921875 22.671875 59.328125 
Q 17.53125 52.734375 16.796875 39.40625 
Q 19.671875 43.65625 24.015625 45.921875 
Q 28.375 48.1875 33.59375 48.1875 
Q 44.578125 48.1875 50.953125 41.515625 
Q 57.328125 34.859375 57.328125 23.390625 
Q 57.328125 12.15625 50.6875 5.359375 
Q 44.046875 -1.421875 33.015625 -1.421875 
Q 20.359375 -1.421875 13.671875 8.265625 
Q 6.984375 17.96875 6.984375 36.375 
Q 6.984375 53.65625 15.1875 63.9375 
Q 23.390625 74.21875 37.203125 74.21875 
Q 40.921875 74.21875 44.703125 73.484375 
Q 48.484375 72.75 52.59375 71.296875 
z
" id="DejaVuSans-54"/>
       </defs>
       <use xlink:href="#DejaVuSans-54"/>
       <use x="63.623047" xlink:href="#DejaVuSans-48"/>
      </g>
     </g>
    </g>
    <g id="xtick_5">
     <g id="line2d_9">
      <path clip-path="url(#pf5e243c721)" d="M 200.851962 220.84 
L 200.851962 16.08 
" style="fill:none;stroke:#b0b0b0;stroke-linecap:square;stroke-width:0.8;"/>
     </g>
     <g id="line2d_10">
      <g>
       <use style="stroke:#000000;stroke-width:0.8;" x="200.851962" xlink:href="#mf7364cd9c3" y="220.84"/>
      </g>
     </g>
     <g id="text_5">
      <!-- 80 -->
      <g transform="translate(194.489462 235.438437)scale(0.1 -0.1)">
       <defs>
        <path d="M 31.78125 34.625 
Q 24.75 34.625 20.71875 30.859375 
Q 16.703125 27.09375 16.703125 20.515625 
Q 16.703125 13.921875 20.71875 10.15625 
Q 24.75 6.390625 31.78125 6.390625 
Q 38.8125 6.390625 42.859375 10.171875 
Q 46.921875 13.96875 46.921875 20.515625 
Q 46.921875 27.09375 42.890625 30.859375 
Q 38.875 34.625 31.78125 34.625 
z
M 21.921875 38.8125 
Q 15.578125 40.375 12.03125 44.71875 
Q 8.5 49.078125 8.5 55.328125 
Q 8.5 64.0625 14.71875 69.140625 
Q 20.953125 74.21875 31.78125 74.21875 
Q 42.671875 74.21875 48.875 69.140625 
Q 55.078125 64.0625 55.078125 55.328125 
Q 55.078125 49.078125 51.53125 44.71875 
Q 48 40.375 41.703125 38.8125 
Q 48.828125 37.15625 52.796875 32.3125 
Q 56.78125 27.484375 56.78125 20.515625 
Q 56.78125 9.90625 50.3125 4.234375 
Q 43.84375 -1.421875 31.78125 -1.421875 
Q 19.734375 -1.421875 13.25 4.234375 
Q 6.78125 9.90625 6.78125 20.515625 
Q 6.78125 27.484375 10.78125 32.3125 
Q 14.796875 37.15625 21.921875 38.8125 
z
M 18.3125 54.390625 
Q 18.3125 48.734375 21.84375 45.5625 
Q 25.390625 42.390625 31.78125 42.390625 
Q 38.140625 42.390625 41.71875 45.5625 
Q 45.3125 48.734375 45.3125 54.390625 
Q 45.3125 60.0625 41.71875 63.234375 
Q 38.140625 66.40625 31.78125 66.40625 
Q 25.390625 66.40625 21.84375 63.234375 
Q 18.3125 60.0625 18.3125 54.390625 
z
" id="DejaVuSans-56"/>
       </defs>
       <use xlink:href="#DejaVuSans-56"/>
       <use x="63.623047" xlink:href="#DejaVuSans-48"/>
      </g>
     </g>
    </g>
    <g id="xtick_6">
     <g id="line2d_11">
      <path clip-path="url(#pf5e243c721)" d="M 240.121089 220.84 
L 240.121089 16.08 
" style="fill:none;stroke:#b0b0b0;stroke-linecap:square;stroke-width:0.8;"/>
     </g>
     <g id="line2d_12">
      <g>
       <use style="stroke:#000000;stroke-width:0.8;" x="240.121089" xlink:href="#mf7364cd9c3" y="220.84"/>
      </g>
     </g>
     <g id="text_6">
      <!-- 100 -->
      <g transform="translate(230.577339 235.438437)scale(0.1 -0.1)">
       <defs>
        <path d="M 12.40625 8.296875 
L 28.515625 8.296875 
L 28.515625 63.921875 
L 10.984375 60.40625 
L 10.984375 69.390625 
L 28.421875 72.90625 
L 38.28125 72.90625 
L 38.28125 8.296875 
L 54.390625 8.296875 
L 54.390625 0 
L 12.40625 0 
z
" id="DejaVuSans-49"/>
       </defs>
       <use xlink:href="#DejaVuSans-49"/>
       <use x="63.623047" xlink:href="#DejaVuSans-48"/>
       <use x="127.246094" xlink:href="#DejaVuSans-48"/>
      </g>
     </g>
    </g>
    <g id="text_7">
     <!-- Epoch -->
     <g transform="translate(127.619063 249.116562)scale(0.1 -0.1)">
      <defs>
       <path d="M 9.8125 72.90625 
L 55.90625 72.90625 
L 55.90625 64.59375 
L 19.671875 64.59375 
L 19.671875 43.015625 
L 54.390625 43.015625 
L 54.390625 34.71875 
L 19.671875 34.71875 
L 19.671875 8.296875 
L 56.78125 8.296875 
L 56.78125 0 
L 9.8125 0 
z
" id="DejaVuSans-69"/>
       <path d="M 18.109375 8.203125 
L 18.109375 -20.796875 
L 9.078125 -20.796875 
L 9.078125 54.6875 
L 18.109375 54.6875 
L 18.109375 46.390625 
Q 20.953125 51.265625 25.265625 53.625 
Q 29.59375 56 35.59375 56 
Q 45.5625 56 51.78125 48.09375 
Q 58.015625 40.1875 58.015625 27.296875 
Q 58.015625 14.40625 51.78125 6.484375 
Q 45.5625 -1.421875 35.59375 -1.421875 
Q 29.59375 -1.421875 25.265625 0.953125 
Q 20.953125 3.328125 18.109375 8.203125 
z
M 48.6875 27.296875 
Q 48.6875 37.203125 44.609375 42.84375 
Q 40.53125 48.484375 33.40625 48.484375 
Q 26.265625 48.484375 22.1875 42.84375 
Q 18.109375 37.203125 18.109375 27.296875 
Q 18.109375 17.390625 22.1875 11.75 
Q 26.265625 6.109375 33.40625 6.109375 
Q 40.53125 6.109375 44.609375 11.75 
Q 48.6875 17.390625 48.6875 27.296875 
z
" id="DejaVuSans-112"/>
       <path d="M 30.609375 48.390625 
Q 23.390625 48.390625 19.1875 42.75 
Q 14.984375 37.109375 14.984375 27.296875 
Q 14.984375 17.484375 19.15625 11.84375 
Q 23.34375 6.203125 30.609375 6.203125 
Q 37.796875 6.203125 41.984375 11.859375 
Q 46.1875 17.53125 46.1875 27.296875 
Q 46.1875 37.015625 41.984375 42.703125 
Q 37.796875 48.390625 30.609375 48.390625 
z
M 30.609375 56 
Q 42.328125 56 49.015625 48.375 
Q 55.71875 40.765625 55.71875 27.296875 
Q 55.71875 13.875 49.015625 6.21875 
Q 42.328125 -1.421875 30.609375 -1.421875 
Q 18.84375 -1.421875 12.171875 6.21875 
Q 5.515625 13.875 5.515625 27.296875 
Q 5.515625 40.765625 12.171875 48.375 
Q 18.84375 56 30.609375 56 
z
" id="DejaVuSans-111"/>
       <path d="M 48.78125 52.59375 
L 48.78125 44.1875 
Q 44.96875 46.296875 41.140625 47.34375 
Q 37.3125 48.390625 33.40625 48.390625 
Q 24.65625 48.390625 19.8125 42.84375 
Q 14.984375 37.3125 14.984375 27.296875 
Q 14.984375 17.28125 19.8125 11.734375 
Q 24.65625 6.203125 33.40625 6.203125 
Q 37.3125 6.203125 41.140625 7.25 
Q 44.96875 8.296875 48.78125 10.40625 
L 48.78125 2.09375 
Q 45.015625 0.34375 40.984375 -0.53125 
Q 36.96875 -1.421875 32.421875 -1.421875 
Q 20.0625 -1.421875 12.78125 6.34375 
Q 5.515625 14.109375 5.515625 27.296875 
Q 5.515625 40.671875 12.859375 48.328125 
Q 20.21875 56 33.015625 56 
Q 37.15625 56 41.109375 55.140625 
Q 45.0625 54.296875 48.78125 52.59375 
z
" id="DejaVuSans-99"/>
       <path d="M 54.890625 33.015625 
L 54.890625 0 
L 45.90625 0 
L 45.90625 32.71875 
Q 45.90625 40.484375 42.875 44.328125 
Q 39.84375 48.1875 33.796875 48.1875 
Q 26.515625 48.1875 22.3125 43.546875 
Q 18.109375 38.921875 18.109375 30.90625 
L 18.109375 0 
L 9.078125 0 
L 9.078125 75.984375 
L 18.109375 75.984375 
L 18.109375 46.1875 
Q 21.34375 51.125 25.703125 53.5625 
Q 30.078125 56 35.796875 56 
Q 45.21875 56 50.046875 50.171875 
Q 54.890625 44.34375 54.890625 33.015625 
z
" id="DejaVuSans-104"/>
      </defs>
      <use xlink:href="#DejaVuSans-69"/>
      <use x="63.183594" xlink:href="#DejaVuSans-112"/>
      <use x="126.660156" xlink:href="#DejaVuSans-111"/>
      <use x="187.841797" xlink:href="#DejaVuSans-99"/>
      <use x="242.822266" xlink:href="#DejaVuSans-104"/>
     </g>
    </g>
   </g>
   <g id="matplotlib.axis_2">
    <g id="ytick_1">
     <g id="line2d_13">
      <path clip-path="url(#pf5e243c721)" d="M 33.86 220.84 
L 252 220.84 
" style="fill:none;stroke:#b0b0b0;stroke-linecap:square;stroke-width:0.8;"/>
     </g>
     <g id="line2d_14">
      <defs>
       <path d="M 0 0 
L -3.5 0 
" id="mf0ed0fd1d3" style="stroke:#000000;stroke-width:0.8;"/>
      </defs>
      <g>
       <use style="stroke:#000000;stroke-width:0.8;" x="33.86" xlink:href="#mf0ed0fd1d3" y="220.84"/>
      </g>
     </g>
     <g id="text_8">
      <!-- 0 -->
      <g transform="translate(20.4975 224.639219)scale(0.1 -0.1)">
       <use xlink:href="#DejaVuSans-48"/>
      </g>
     </g>
    </g>
    <g id="ytick_2">
     <g id="line2d_15">
      <path clip-path="url(#pf5e243c721)" d="M 33.86 203.776667 
L 252 203.776667 
" style="fill:none;stroke:#b0b0b0;stroke-linecap:square;stroke-width:0.8;"/>
     </g>
     <g id="line2d_16">
      <g>
       <use style="stroke:#000000;stroke-width:0.8;" x="33.86" xlink:href="#mf0ed0fd1d3" y="203.776667"/>
      </g>
     </g>
     <g id="text_9">
      <!-- 1 -->
      <g transform="translate(20.4975 207.575885)scale(0.1 -0.1)">
       <use xlink:href="#DejaVuSans-49"/>
      </g>
     </g>
    </g>
    <g id="ytick_3">
     <g id="line2d_17">
      <path clip-path="url(#pf5e243c721)" d="M 33.86 186.713333 
L 252 186.713333 
" style="fill:none;stroke:#b0b0b0;stroke-linecap:square;stroke-width:0.8;"/>
     </g>
     <g id="line2d_18">
      <g>
       <use style="stroke:#000000;stroke-width:0.8;" x="33.86" xlink:href="#mf0ed0fd1d3" y="186.713333"/>
      </g>
     </g>
     <g id="text_10">
      <!-- 2 -->
      <g transform="translate(20.4975 190.512552)scale(0.1 -0.1)">
       <use xlink:href="#DejaVuSans-50"/>
      </g>
     </g>
    </g>
    <g id="ytick_4">
     <g id="line2d_19">
      <path clip-path="url(#pf5e243c721)" d="M 33.86 169.65 
L 252 169.65 
" style="fill:none;stroke:#b0b0b0;stroke-linecap:square;stroke-width:0.8;"/>
     </g>
     <g id="line2d_20">
      <g>
       <use style="stroke:#000000;stroke-width:0.8;" x="33.86" xlink:href="#mf0ed0fd1d3" y="169.65"/>
      </g>
     </g>
     <g id="text_11">
      <!-- 3 -->
      <g transform="translate(20.4975 173.449219)scale(0.1 -0.1)">
       <defs>
        <path d="M 40.578125 39.3125 
Q 47.65625 37.796875 51.625 33 
Q 55.609375 28.21875 55.609375 21.1875 
Q 55.609375 10.40625 48.1875 4.484375 
Q 40.765625 -1.421875 27.09375 -1.421875 
Q 22.515625 -1.421875 17.65625 -0.515625 
Q 12.796875 0.390625 7.625 2.203125 
L 7.625 11.71875 
Q 11.71875 9.328125 16.59375 8.109375 
Q 21.484375 6.890625 26.8125 6.890625 
Q 36.078125 6.890625 40.9375 10.546875 
Q 45.796875 14.203125 45.796875 21.1875 
Q 45.796875 27.640625 41.28125 31.265625 
Q 36.765625 34.90625 28.71875 34.90625 
L 20.21875 34.90625 
L 20.21875 43.015625 
L 29.109375 43.015625 
Q 36.375 43.015625 40.234375 45.921875 
Q 44.09375 48.828125 44.09375 54.296875 
Q 44.09375 59.90625 40.109375 62.90625 
Q 36.140625 65.921875 28.71875 65.921875 
Q 24.65625 65.921875 20.015625 65.03125 
Q 15.375 64.15625 9.8125 62.3125 
L 9.8125 71.09375 
Q 15.4375 72.65625 20.34375 73.4375 
Q 25.25 74.21875 29.59375 74.21875 
Q 40.828125 74.21875 47.359375 69.109375 
Q 53.90625 64.015625 53.90625 55.328125 
Q 53.90625 49.265625 50.4375 45.09375 
Q 46.96875 40.921875 40.578125 39.3125 
z
" id="DejaVuSans-51"/>
       </defs>
       <use xlink:href="#DejaVuSans-51"/>
      </g>
     </g>
    </g>
    <g id="ytick_5">
     <g id="line2d_21">
      <path clip-path="url(#pf5e243c721)" d="M 33.86 152.586667 
L 252 152.586667 
" style="fill:none;stroke:#b0b0b0;stroke-linecap:square;stroke-width:0.8;"/>
     </g>
     <g id="line2d_22">
      <g>
       <use style="stroke:#000000;stroke-width:0.8;" x="33.86" xlink:href="#mf0ed0fd1d3" y="152.586667"/>
      </g>
     </g>
     <g id="text_12">
      <!-- 4 -->
      <g transform="translate(20.4975 156.385885)scale(0.1 -0.1)">
       <use xlink:href="#DejaVuSans-52"/>
      </g>
     </g>
    </g>
    <g id="ytick_6">
     <g id="line2d_23">
      <path clip-path="url(#pf5e243c721)" d="M 33.86 135.523333 
L 252 135.523333 
" style="fill:none;stroke:#b0b0b0;stroke-linecap:square;stroke-width:0.8;"/>
     </g>
     <g id="line2d_24">
      <g>
       <use style="stroke:#000000;stroke-width:0.8;" x="33.86" xlink:href="#mf0ed0fd1d3" y="135.523333"/>
      </g>
     </g>
     <g id="text_13">
      <!-- 5 -->
      <g transform="translate(20.4975 139.322552)scale(0.1 -0.1)">
       <defs>
        <path d="M 10.796875 72.90625 
L 49.515625 72.90625 
L 49.515625 64.59375 
L 19.828125 64.59375 
L 19.828125 46.734375 
Q 21.96875 47.46875 24.109375 47.828125 
Q 26.265625 48.1875 28.421875 48.1875 
Q 40.625 48.1875 47.75 41.5 
Q 54.890625 34.8125 54.890625 23.390625 
Q 54.890625 11.625 47.5625 5.09375 
Q 40.234375 -1.421875 26.90625 -1.421875 
Q 22.3125 -1.421875 17.546875 -0.640625 
Q 12.796875 0.140625 7.71875 1.703125 
L 7.71875 11.625 
Q 12.109375 9.234375 16.796875 8.0625 
Q 21.484375 6.890625 26.703125 6.890625 
Q 35.15625 6.890625 40.078125 11.328125 
Q 45.015625 15.765625 45.015625 23.390625 
Q 45.015625 31 40.078125 35.4375 
Q 35.15625 39.890625 26.703125 39.890625 
Q 22.75 39.890625 18.8125 39.015625 
Q 14.890625 38.140625 10.796875 36.28125 
z
" id="DejaVuSans-53"/>
       </defs>
       <use xlink:href="#DejaVuSans-53"/>
      </g>
     </g>
    </g>
    <g id="ytick_7">
     <g id="line2d_25">
      <path clip-path="url(#pf5e243c721)" d="M 33.86 118.46 
L 252 118.46 
" style="fill:none;stroke:#b0b0b0;stroke-linecap:square;stroke-width:0.8;"/>
     </g>
     <g id="line2d_26">
      <g>
       <use style="stroke:#000000;stroke-width:0.8;" x="33.86" xlink:href="#mf0ed0fd1d3" y="118.46"/>
      </g>
     </g>
     <g id="text_14">
      <!-- 6 -->
      <g transform="translate(20.4975 122.259219)scale(0.1 -0.1)">
       <use xlink:href="#DejaVuSans-54"/>
      </g>
     </g>
    </g>
    <g id="ytick_8">
     <g id="line2d_27">
      <path clip-path="url(#pf5e243c721)" d="M 33.86 101.396667 
L 252 101.396667 
" style="fill:none;stroke:#b0b0b0;stroke-linecap:square;stroke-width:0.8;"/>
     </g>
     <g id="line2d_28">
      <g>
       <use style="stroke:#000000;stroke-width:0.8;" x="33.86" xlink:href="#mf0ed0fd1d3" y="101.396667"/>
      </g>
     </g>
     <g id="text_15">
      <!-- 7 -->
      <g transform="translate(20.4975 105.195885)scale(0.1 -0.1)">
       <defs>
        <path d="M 8.203125 72.90625 
L 55.078125 72.90625 
L 55.078125 68.703125 
L 28.609375 0 
L 18.3125 0 
L 43.21875 64.59375 
L 8.203125 64.59375 
z
" id="DejaVuSans-55"/>
       </defs>
       <use xlink:href="#DejaVuSans-55"/>
      </g>
     </g>
    </g>
    <g id="ytick_9">
     <g id="line2d_29">
      <path clip-path="url(#pf5e243c721)" d="M 33.86 84.333333 
L 252 84.333333 
" style="fill:none;stroke:#b0b0b0;stroke-linecap:square;stroke-width:0.8;"/>
     </g>
     <g id="line2d_30">
      <g>
       <use style="stroke:#000000;stroke-width:0.8;" x="33.86" xlink:href="#mf0ed0fd1d3" y="84.333333"/>
      </g>
     </g>
     <g id="text_16">
      <!-- 8 -->
      <g transform="translate(20.4975 88.132552)scale(0.1 -0.1)">
       <use xlink:href="#DejaVuSans-56"/>
      </g>
     </g>
    </g>
    <g id="ytick_10">
     <g id="line2d_31">
      <path clip-path="url(#pf5e243c721)" d="M 33.86 67.27 
L 252 67.27 
" style="fill:none;stroke:#b0b0b0;stroke-linecap:square;stroke-width:0.8;"/>
     </g>
     <g id="line2d_32">
      <g>
       <use style="stroke:#000000;stroke-width:0.8;" x="33.86" xlink:href="#mf0ed0fd1d3" y="67.27"/>
      </g>
     </g>
     <g id="text_17">
      <!-- 9 -->
      <g transform="translate(20.4975 71.069219)scale(0.1 -0.1)">
       <defs>
        <path d="M 10.984375 1.515625 
L 10.984375 10.5 
Q 14.703125 8.734375 18.5 7.8125 
Q 22.3125 6.890625 25.984375 6.890625 
Q 35.75 6.890625 40.890625 13.453125 
Q 46.046875 20.015625 46.78125 33.40625 
Q 43.953125 29.203125 39.59375 26.953125 
Q 35.25 24.703125 29.984375 24.703125 
Q 19.046875 24.703125 12.671875 31.3125 
Q 6.296875 37.9375 6.296875 49.421875 
Q 6.296875 60.640625 12.9375 67.421875 
Q 19.578125 74.21875 30.609375 74.21875 
Q 43.265625 74.21875 49.921875 64.515625 
Q 56.59375 54.828125 56.59375 36.375 
Q 56.59375 19.140625 48.40625 8.859375 
Q 40.234375 -1.421875 26.421875 -1.421875 
Q 22.703125 -1.421875 18.890625 -0.6875 
Q 15.09375 0.046875 10.984375 1.515625 
z
M 30.609375 32.421875 
Q 37.25 32.421875 41.125 36.953125 
Q 45.015625 41.5 45.015625 49.421875 
Q 45.015625 57.28125 41.125 61.84375 
Q 37.25 66.40625 30.609375 66.40625 
Q 23.96875 66.40625 20.09375 61.84375 
Q 16.21875 57.28125 16.21875 49.421875 
Q 16.21875 41.5 20.09375 36.953125 
Q 23.96875 32.421875 30.609375 32.421875 
z
" id="DejaVuSans-57"/>
       </defs>
       <use xlink:href="#DejaVuSans-57"/>
      </g>
     </g>
    </g>
    <g id="ytick_11">
     <g id="line2d_33">
      <path clip-path="url(#pf5e243c721)" d="M 33.86 50.206667 
L 252 50.206667 
" style="fill:none;stroke:#b0b0b0;stroke-linecap:square;stroke-width:0.8;"/>
     </g>
     <g id="line2d_34">
      <g>
       <use style="stroke:#000000;stroke-width:0.8;" x="33.86" xlink:href="#mf0ed0fd1d3" y="50.206667"/>
      </g>
     </g>
     <g id="text_18">
      <!-- 10 -->
      <g transform="translate(14.135 54.005885)scale(0.1 -0.1)">
       <use xlink:href="#DejaVuSans-49"/>
       <use x="63.623047" xlink:href="#DejaVuSans-48"/>
      </g>
     </g>
    </g>
    <g id="ytick_12">
     <g id="line2d_35">
      <path clip-path="url(#pf5e243c721)" d="M 33.86 33.143333 
L 252 33.143333 
" style="fill:none;stroke:#b0b0b0;stroke-linecap:square;stroke-width:0.8;"/>
     </g>
     <g id="line2d_36">
      <g>
       <use style="stroke:#000000;stroke-width:0.8;" x="33.86" xlink:href="#mf0ed0fd1d3" y="33.143333"/>
      </g>
     </g>
     <g id="text_19">
      <!-- 11 -->
      <g transform="translate(14.135 36.942552)scale(0.1 -0.1)">
       <use xlink:href="#DejaVuSans-49"/>
       <use x="63.623047" xlink:href="#DejaVuSans-49"/>
      </g>
     </g>
    </g>
    <g id="ytick_13">
     <g id="line2d_37">
      <path clip-path="url(#pf5e243c721)" d="M 33.86 16.08 
L 252 16.08 
" style="fill:none;stroke:#b0b0b0;stroke-linecap:square;stroke-width:0.8;"/>
     </g>
     <g id="line2d_38">
      <g>
       <use style="stroke:#000000;stroke-width:0.8;" x="33.86" xlink:href="#mf0ed0fd1d3" y="16.08"/>
      </g>
     </g>
     <g id="text_20">
      <!-- 12 -->
      <g transform="translate(14.135 19.879219)scale(0.1 -0.1)">
       <use xlink:href="#DejaVuSans-49"/>
       <use x="63.623047" xlink:href="#DejaVuSans-50"/>
      </g>
     </g>
    </g>
    <g id="text_21">
     <!-- Test UA (%) -->
     <g transform="translate(8.055312 147.215469)rotate(-90)scale(0.1 -0.1)">
      <defs>
       <path d="M -0.296875 72.90625 
L 61.375 72.90625 
L 61.375 64.59375 
L 35.5 64.59375 
L 35.5 0 
L 25.59375 0 
L 25.59375 64.59375 
L -0.296875 64.59375 
z
" id="DejaVuSans-84"/>
       <path d="M 56.203125 29.59375 
L 56.203125 25.203125 
L 14.890625 25.203125 
Q 15.484375 15.921875 20.484375 11.0625 
Q 25.484375 6.203125 34.421875 6.203125 
Q 39.59375 6.203125 44.453125 7.46875 
Q 49.3125 8.734375 54.109375 11.28125 
L 54.109375 2.78125 
Q 49.265625 0.734375 44.1875 -0.34375 
Q 39.109375 -1.421875 33.890625 -1.421875 
Q 20.796875 -1.421875 13.15625 6.1875 
Q 5.515625 13.8125 5.515625 26.8125 
Q 5.515625 40.234375 12.765625 48.109375 
Q 20.015625 56 32.328125 56 
Q 43.359375 56 49.78125 48.890625 
Q 56.203125 41.796875 56.203125 29.59375 
z
M 47.21875 32.234375 
Q 47.125 39.59375 43.09375 43.984375 
Q 39.0625 48.390625 32.421875 48.390625 
Q 24.90625 48.390625 20.390625 44.140625 
Q 15.875 39.890625 15.1875 32.171875 
z
" id="DejaVuSans-101"/>
       <path d="M 44.28125 53.078125 
L 44.28125 44.578125 
Q 40.484375 46.53125 36.375 47.5 
Q 32.28125 48.484375 27.875 48.484375 
Q 21.1875 48.484375 17.84375 46.4375 
Q 14.5 44.390625 14.5 40.28125 
Q 14.5 37.15625 16.890625 35.375 
Q 19.28125 33.59375 26.515625 31.984375 
L 29.59375 31.296875 
Q 39.15625 29.25 43.1875 25.515625 
Q 47.21875 21.78125 47.21875 15.09375 
Q 47.21875 7.46875 41.1875 3.015625 
Q 35.15625 -1.421875 24.609375 -1.421875 
Q 20.21875 -1.421875 15.453125 -0.5625 
Q 10.6875 0.296875 5.421875 2 
L 5.421875 11.28125 
Q 10.40625 8.6875 15.234375 7.390625 
Q 20.0625 6.109375 24.8125 6.109375 
Q 31.15625 6.109375 34.5625 8.28125 
Q 37.984375 10.453125 37.984375 14.40625 
Q 37.984375 18.0625 35.515625 20.015625 
Q 33.0625 21.96875 24.703125 23.78125 
L 21.578125 24.515625 
Q 13.234375 26.265625 9.515625 29.90625 
Q 5.8125 33.546875 5.8125 39.890625 
Q 5.8125 47.609375 11.28125 51.796875 
Q 16.75 56 26.8125 56 
Q 31.78125 56 36.171875 55.265625 
Q 40.578125 54.546875 44.28125 53.078125 
z
" id="DejaVuSans-115"/>
       <path d="M 18.3125 70.21875 
L 18.3125 54.6875 
L 36.8125 54.6875 
L 36.8125 47.703125 
L 18.3125 47.703125 
L 18.3125 18.015625 
Q 18.3125 11.328125 20.140625 9.421875 
Q 21.96875 7.515625 27.59375 7.515625 
L 36.8125 7.515625 
L 36.8125 0 
L 27.59375 0 
Q 17.1875 0 13.234375 3.875 
Q 9.28125 7.765625 9.28125 18.015625 
L 9.28125 47.703125 
L 2.6875 47.703125 
L 2.6875 54.6875 
L 9.28125 54.6875 
L 9.28125 70.21875 
z
" id="DejaVuSans-116"/>
       <path id="DejaVuSans-32"/>
       <path d="M 8.6875 72.90625 
L 18.609375 72.90625 
L 18.609375 28.609375 
Q 18.609375 16.890625 22.84375 11.734375 
Q 27.09375 6.59375 36.625 6.59375 
Q 46.09375 6.59375 50.34375 11.734375 
Q 54.59375 16.890625 54.59375 28.609375 
L 54.59375 72.90625 
L 64.5 72.90625 
L 64.5 27.390625 
Q 64.5 13.140625 57.4375 5.859375 
Q 50.390625 -1.421875 36.625 -1.421875 
Q 22.796875 -1.421875 15.734375 5.859375 
Q 8.6875 13.140625 8.6875 27.390625 
z
" id="DejaVuSans-85"/>
       <path d="M 34.1875 63.1875 
L 20.796875 26.90625 
L 47.609375 26.90625 
z
M 28.609375 72.90625 
L 39.796875 72.90625 
L 67.578125 0 
L 57.328125 0 
L 50.6875 18.703125 
L 17.828125 18.703125 
L 11.1875 0 
L 0.78125 0 
z
" id="DejaVuSans-65"/>
       <path d="M 31 75.875 
Q 24.46875 64.65625 21.28125 53.65625 
Q 18.109375 42.671875 18.109375 31.390625 
Q 18.109375 20.125 21.3125 9.0625 
Q 24.515625 -2 31 -13.1875 
L 23.1875 -13.1875 
Q 15.875 -1.703125 12.234375 9.375 
Q 8.59375 20.453125 8.59375 31.390625 
Q 8.59375 42.28125 12.203125 53.3125 
Q 15.828125 64.359375 23.1875 75.875 
z
" id="DejaVuSans-40"/>
       <path d="M 72.703125 32.078125 
Q 68.453125 32.078125 66.03125 28.46875 
Q 63.625 24.859375 63.625 18.40625 
Q 63.625 12.0625 66.03125 8.421875 
Q 68.453125 4.78125 72.703125 4.78125 
Q 76.859375 4.78125 79.265625 8.421875 
Q 81.6875 12.0625 81.6875 18.40625 
Q 81.6875 24.8125 79.265625 28.4375 
Q 76.859375 32.078125 72.703125 32.078125 
z
M 72.703125 38.28125 
Q 80.421875 38.28125 84.953125 32.90625 
Q 89.5 27.546875 89.5 18.40625 
Q 89.5 9.28125 84.9375 3.921875 
Q 80.375 -1.421875 72.703125 -1.421875 
Q 64.890625 -1.421875 60.34375 3.921875 
Q 55.8125 9.28125 55.8125 18.40625 
Q 55.8125 27.59375 60.375 32.9375 
Q 64.9375 38.28125 72.703125 38.28125 
z
M 22.3125 68.015625 
Q 18.109375 68.015625 15.6875 64.375 
Q 13.28125 60.75 13.28125 54.390625 
Q 13.28125 47.953125 15.671875 44.328125 
Q 18.0625 40.71875 22.3125 40.71875 
Q 26.5625 40.71875 28.96875 44.328125 
Q 31.390625 47.953125 31.390625 54.390625 
Q 31.390625 60.6875 28.953125 64.34375 
Q 26.515625 68.015625 22.3125 68.015625 
z
M 66.40625 74.21875 
L 74.21875 74.21875 
L 28.609375 -1.421875 
L 20.796875 -1.421875 
z
M 22.3125 74.21875 
Q 30.03125 74.21875 34.609375 68.875 
Q 39.203125 63.53125 39.203125 54.390625 
Q 39.203125 45.171875 34.640625 39.84375 
Q 30.078125 34.515625 22.3125 34.515625 
Q 14.546875 34.515625 10.03125 39.859375 
Q 5.515625 45.21875 5.515625 54.390625 
Q 5.515625 63.484375 10.046875 68.84375 
Q 14.59375 74.21875 22.3125 74.21875 
z
" id="DejaVuSans-37"/>
       <path d="M 8.015625 75.875 
L 15.828125 75.875 
Q 23.140625 64.359375 26.78125 53.3125 
Q 30.421875 42.28125 30.421875 31.390625 
Q 30.421875 20.453125 26.78125 9.375 
Q 23.140625 -1.703125 15.828125 -13.1875 
L 8.015625 -13.1875 
Q 14.5 -2 17.703125 9.0625 
Q 20.90625 20.125 20.90625 31.390625 
Q 20.90625 42.671875 17.703125 53.65625 
Q 14.5 64.65625 8.015625 75.875 
z
" id="DejaVuSans-41"/>
      </defs>
      <use xlink:href="#DejaVuSans-84"/>
      <use x="44.083984" xlink:href="#DejaVuSans-101"/>
      <use x="105.607422" xlink:href="#DejaVuSans-115"/>
      <use x="157.707031" xlink:href="#DejaVuSans-116"/>
      <use x="196.916016" xlink:href="#DejaVuSans-32"/>
      <use x="228.703125" xlink:href="#DejaVuSans-85"/>
      <use x="301.896484" xlink:href="#DejaVuSans-65"/>
      <use x="370.304688" xlink:href="#DejaVuSans-32"/>
      <use x="402.091797" xlink:href="#DejaVuSans-40"/>
      <use x="441.105469" xlink:href="#DejaVuSans-37"/>
      <use x="536.125" xlink:href="#DejaVuSans-41"/>
     </g>
    </g>
   </g>
   <g id="line2d_39">
    <path clip-path="url(#pf5e243c721)" d="M 43.775455 220.84 
L 45.738911 172.80049 
L 47.702367 148.203041 
L 49.665824 123.896629 
L 51.62928 111.833304 
L 53.592736 97.520973 
L 55.556193 93.847491 
L 57.519649 87.539675 
L 59.483105 90.445528 
L 61.446562 77.038305 
L 63.410018 82.278245 
L 65.373474 82.109279 
L 67.336931 74.89124 
L 69.300387 83.38564 
L 71.263843 80.37832 
L 73.2273 71.255966 
L 75.190756 79.460355 
L 77.154212 78.206069 
L 79.117669 81.13663 
L 81.081125 81.761791 
L 83.044581 79.332737 
L 85.008038 73.5659 
L 86.971494 77.763466 
L 88.93495 80.842374 
L 90.898407 82.739215 
L 92.861863 82.124858 
L 94.82532 77.585946 
L 96.788776 83.658107 
L 98.752232 74.455008 
L 100.715689 83.546206 
L 102.679145 83.060137 
L 104.642601 80.735297 
L 106.606058 85.704086 
L 108.569514 82.221304 
L 110.53297 85.214788 
L 112.496427 85.078249 
L 114.459883 83.905942 
L 116.423339 87.794059 
L 118.386796 86.514553 
L 120.350252 83.08059 
L 122.313708 84.988513 
L 124.277165 90.270805 
L 126.240621 83.973103 
L 128.204077 88.029792 
L 130.167534 85.984255 
L 132.13099 84.241483 
L 134.094446 83.773704 
L 136.057903 87.208793 
L 138.021359 86.145581 
L 139.984815 84.727259 
L 141.948272 90.602028 
L 143.911728 85.62933 
L 145.875185 89.390812 
L 147.838641 85.030591 
L 149.802097 85.922568 
L 151.765554 80.39197 
L 153.72901 84.641235 
L 155.692466 84.04477 
L 157.655923 83.926069 
L 159.619379 88.454262 
L 161.582835 83.146572 
L 163.546292 86.044292 
L 165.509748 84.600061 
L 167.473204 90.835916 
L 169.436661 86.99814 
L 171.400117 84.83888 
L 173.363573 86.223986 
L 175.32703 83.910191 
L 177.290486 84.144058 
L 179.253942 86.649587 
L 181.217399 86.594402 
L 183.180855 90.697582 
L 185.144311 80.007107 
L 187.107768 85.678104 
L 189.071224 85.299667 
L 191.03468 81.548424 
L 192.998137 88.329355 
L 194.961593 83.966351 
L 196.92505 84.769114 
L 198.888506 84.476591 
L 200.851962 91.013394 
L 202.815419 85.509248 
L 204.778875 82.609527 
L 206.742331 91.643081 
L 208.705788 84.305151 
L 210.669244 87.892719 
L 212.6327 81.479987 
L 214.596157 83.409742 
L 216.559613 86.573252 
L 218.523069 81.542854 
L 220.486526 84.67273 
L 222.449982 81.969781 
L 224.413438 87.131314 
L 226.376895 83.858708 
L 228.340351 83.299487 
L 230.303807 86.117108 
L 232.267264 84.791851 
L 234.23072 80.011063 
L 236.194176 81.568209 
L 238.157633 83.453506 
L 240.121089 86.751839 
L 242.084545 83.649513 
" style="fill:none;stroke:#1f77b4;stroke-linecap:square;stroke-width:1.5;"/>
   </g>
   <g id="line2d_40">
    <path clip-path="url(#pf5e243c721)" d="M 43.775455 220.84 
L 45.738911 176.299799 
L 47.702367 150.546093 
L 49.665824 128.610296 
L 51.62928 116.076593 
L 53.592736 105.09198 
L 55.556193 95.293961 
L 57.519649 92.086879 
L 59.483105 87.123307 
L 61.446562 87.907208 
L 63.410018 84.890679 
L 65.373474 88.643793 
L 67.336931 84.377656 
L 69.300387 80.614797 
L 71.263843 81.243431 
L 73.2273 79.729903 
L 75.190756 79.382901 
L 77.154212 80.564998 
L 79.117669 77.166484 
L 81.081125 78.396492 
L 83.044581 80.628858 
L 85.008038 76.531251 
L 86.971494 83.288468 
L 88.93495 81.261891 
L 90.898407 78.415604 
L 92.861863 82.919256 
L 94.82532 79.898942 
L 96.788776 82.227694 
L 98.752232 78.883201 
L 100.715689 82.566493 
L 102.679145 80.110807 
L 104.642601 82.604759 
L 106.606058 81.345061 
L 108.569514 82.621786 
L 110.53297 82.422181 
L 112.496427 85.283418 
L 114.459883 86.368761 
L 116.423339 85.442878 
L 118.386796 85.852495 
L 120.350252 84.565294 
L 122.313708 83.500492 
L 124.277165 85.912214 
L 126.240621 84.000559 
L 128.204077 85.535338 
L 130.167534 85.727187 
L 132.13099 83.216793 
L 134.094446 83.368226 
L 136.057903 83.770925 
L 138.021359 83.19409 
L 139.984815 83.008535 
L 141.948272 84.464216 
L 143.911728 83.870432 
L 145.875185 80.673986 
L 147.838641 83.682074 
L 149.802097 80.098324 
L 151.765554 83.039506 
L 153.72901 83.010617 
L 155.692466 82.543363 
L 157.655923 83.440381 
L 159.619379 83.67122 
L 161.582835 83.139151 
L 163.546292 80.99581 
L 165.509748 82.84971 
L 167.473204 82.190388 
L 169.436661 82.01427 
L 171.400117 83.997552 
L 173.363573 82.221822 
L 175.32703 84.264787 
L 177.290486 83.589043 
L 179.253942 83.44255 
L 181.217399 81.139968 
L 183.180855 82.06344 
L 185.144311 83.457633 
L 187.107768 82.998093 
L 189.071224 83.280845 
L 191.03468 83.122151 
L 192.998137 80.269542 
L 194.961593 79.10917 
L 196.92505 80.822711 
L 198.888506 81.322889 
L 200.851962 82.578672 
L 202.815419 80.955688 
L 204.778875 81.556015 
L 206.742331 81.871295 
L 208.705788 82.602558 
L 210.669244 83.177227 
L 212.6327 81.152163 
L 214.596157 80.322415 
L 216.559613 81.94471 
L 218.523069 82.780352 
L 220.486526 79.066384 
L 222.449982 83.45978 
L 224.413438 82.676924 
L 226.376895 80.201212 
L 228.340351 81.046118 
L 230.303807 79.98165 
L 232.267264 80.34443 
L 234.23072 79.651238 
L 236.194176 80.125363 
L 238.157633 80.474461 
L 240.121089 79.701845 
L 242.084545 83.173404 
" style="fill:none;stroke:#ff7f0e;stroke-linecap:square;stroke-width:1.5;"/>
   </g>
   <g id="line2d_41">
    <path clip-path="url(#pf5e243c721)" d="M 43.775455 220.84 
L 45.738911 172.80049 
L 47.702367 145.089661 
L 49.665824 119.356434 
L 51.62928 99.900104 
L 53.592736 92.625941 
L 55.556193 79.786796 
L 57.519649 75.192287 
L 59.483105 67.379439 
L 61.446562 63.370513 
L 63.410018 62.603098 
L 65.373474 65.641245 
L 67.336931 62.896563 
L 69.300387 60.592189 
L 71.263843 59.006629 
L 73.2273 55.899376 
L 75.190756 58.737408 
L 77.154212 57.691871 
L 79.117669 58.291447 
L 81.081125 53.27124 
L 83.044581 54.079513 
L 85.008038 55.810944 
L 86.971494 49.859038 
L 88.93495 54.067772 
L 90.898407 53.306632 
L 92.861863 55.511198 
L 94.82532 50.642036 
L 96.788776 57.526164 
L 98.752232 55.659755 
L 100.715689 54.152333 
L 102.679145 54.504011 
L 104.642601 54.787479 
L 106.606058 49.55407 
L 108.569514 52.567115 
L 110.53297 49.969814 
L 112.496427 52.377917 
L 114.459883 45.518894 
L 116.423339 48.904384 
L 118.386796 55.789291 
L 120.350252 57.01319 
L 122.313708 55.302808 
L 124.277165 54.659009 
L 126.240621 53.065628 
L 128.204077 49.645678 
L 130.167534 51.944548 
L 132.13099 57.067998 
L 134.094446 58.682501 
L 136.057903 53.059198 
L 138.021359 57.49399 
L 139.984815 58.432772 
L 141.948272 58.27201 
L 143.911728 55.628447 
L 145.875185 56.107252 
L 147.838641 59.252454 
L 149.802097 61.995441 
L 151.765554 61.039543 
L 153.72901 55.478525 
L 155.692466 57.86642 
L 157.655923 54.759705 
L 159.619379 57.420867 
L 161.582835 57.89642 
L 163.546292 58.23892 
L 165.509748 57.768691 
L 167.473204 54.721646 
L 169.436661 57.617566 
L 171.400117 60.70082 
L 173.363573 58.330664 
L 175.32703 61.270072 
L 177.290486 62.110461 
L 179.253942 57.773881 
L 181.217399 59.409856 
L 183.180855 58.401962 
L 185.144311 61.048669 
L 187.107768 59.101642 
L 189.071224 59.700893 
L 191.03468 62.453616 
L 192.998137 61.271152 
L 194.961593 61.540692 
L 196.92505 61.977926 
L 198.888506 60.737634 
L 200.851962 61.95569 
L 202.815419 64.15222 
L 204.778875 69.592685 
L 206.742331 65.446884 
L 208.705788 66.136464 
L 210.669244 66.131791 
L 212.6327 62.575633 
L 214.596157 62.902453 
L 216.559613 67.191149 
L 218.523069 61.097334 
L 220.486526 66.118891 
L 222.449982 67.154123 
L 224.413438 59.091354 
L 226.376895 61.122381 
L 228.340351 63.904742 
L 230.303807 65.529701 
L 232.267264 63.066782 
L 234.23072 64.270988 
L 236.194176 62.487884 
L 238.157633 64.473507 
L 240.121089 66.744102 
L 242.084545 70.67168 
" style="fill:none;stroke:#2ca02c;stroke-linecap:square;stroke-width:1.5;"/>
   </g>
   <g id="line2d_42">
    <path clip-path="url(#pf5e243c721)" d="M 43.775455 220.84 
L 45.738911 176.299799 
L 47.702367 149.622918 
L 49.665824 129.65862 
L 51.62928 108.842033 
L 53.592736 96.903509 
L 55.556193 87.346644 
L 57.519649 78.230245 
L 59.483105 78.069194 
L 61.446562 73.025512 
L 63.410018 68.458484 
L 65.373474 68.966991 
L 67.336931 69.300838 
L 69.300387 66.899586 
L 71.263843 67.528251 
L 73.2273 66.301873 
L 75.190756 64.069287 
L 77.154212 60.771868 
L 79.117669 60.754639 
L 81.081125 60.405376 
L 83.044581 63.11572 
L 85.008038 58.698934 
L 86.971494 57.858932 
L 88.93495 58.137692 
L 90.898407 61.124482 
L 92.861863 58.573687 
L 94.82532 56.953713 
L 96.788776 56.67656 
L 98.752232 55.898426 
L 100.715689 56.281756 
L 102.679145 57.907919 
L 104.642601 56.550358 
L 106.606058 54.63592 
L 108.569514 54.332427 
L 110.53297 55.350219 
L 112.496427 56.290071 
L 114.459883 54.350178 
L 116.423339 56.379881 
L 118.386796 55.224392 
L 120.350252 53.612847 
L 122.313708 52.156797 
L 124.277165 53.133766 
L 126.240621 51.49865 
L 128.204077 53.092849 
L 130.167534 51.331076 
L 132.13099 51.007048 
L 134.094446 48.682149 
L 136.057903 48.911468 
L 138.021359 51.367539 
L 139.984815 52.83819 
L 141.948272 49.349949 
L 143.911728 48.674558 
L 145.875185 50.13496 
L 147.838641 51.478034 
L 149.802097 51.365604 
L 151.765554 50.287106 
L 153.72901 48.91008 
L 155.692466 51.681153 
L 157.655923 51.801548 
L 159.619379 49.538609 
L 161.582835 48.572788 
L 163.546292 51.411515 
L 165.509748 50.347337 
L 167.473204 50.867261 
L 169.436661 53.657766 
L 171.400117 51.789998 
L 173.363573 52.709381 
L 175.32703 50.435696 
L 177.290486 51.000298 
L 179.253942 49.286893 
L 181.217399 52.591549 
L 183.180855 52.591778 
L 185.144311 51.890719 
L 187.107768 50.844403 
L 189.071224 50.360699 
L 191.03468 53.544506 
L 192.998137 52.307554 
L 194.961593 49.220498 
L 196.92505 51.970612 
L 198.888506 52.98006 
L 200.851962 53.273509 
L 202.815419 52.15209 
L 204.778875 54.481673 
L 206.742331 54.696233 
L 208.705788 51.430655 
L 210.669244 54.98083 
L 212.6327 53.221735 
L 214.596157 51.644728 
L 216.559613 51.326198 
L 218.523069 52.307519 
L 220.486526 52.565097 
L 222.449982 54.54744 
L 224.413438 54.451559 
L 226.376895 55.084692 
L 228.340351 55.669861 
L 230.303807 54.929114 
L 232.267264 51.864645 
L 234.23072 54.217891 
L 236.194176 53.148449 
L 238.157633 54.333952 
L 240.121089 55.792672 
L 242.084545 57.60378 
" style="fill:none;stroke:#d62728;stroke-linecap:square;stroke-width:1.5;"/>
   </g>
   <g id="patch_3">
    <path d="M 33.86 220.84 
L 33.86 16.08 
" style="fill:none;stroke:#000000;stroke-linecap:square;stroke-linejoin:miter;stroke-width:0.8;"/>
   </g>
   <g id="patch_4">
    <path d="M 252 220.84 
L 252 16.08 
" style="fill:none;stroke:#000000;stroke-linecap:square;stroke-linejoin:miter;stroke-width:0.8;"/>
   </g>
   <g id="patch_5">
    <path d="M 33.86 220.84 
L 252 220.84 
" style="fill:none;stroke:#000000;stroke-linecap:square;stroke-linejoin:miter;stroke-width:0.8;"/>
   </g>
   <g id="patch_6">
    <path d="M 33.86 16.08 
L 252 16.08 
" style="fill:none;stroke:#000000;stroke-linecap:square;stroke-linejoin:miter;stroke-width:0.8;"/>
   </g>
   <g id="text_22">
    <!-- Effects of BN fine-tuning -->
    <g transform="translate(69.6625 10.08)scale(0.12 -0.12)">
     <defs>
      <path d="M 37.109375 75.984375 
L 37.109375 68.5 
L 28.515625 68.5 
Q 23.6875 68.5 21.796875 66.546875 
Q 19.921875 64.59375 19.921875 59.515625 
L 19.921875 54.6875 
L 34.71875 54.6875 
L 34.71875 47.703125 
L 19.921875 47.703125 
L 19.921875 0 
L 10.890625 0 
L 10.890625 47.703125 
L 2.296875 47.703125 
L 2.296875 54.6875 
L 10.890625 54.6875 
L 10.890625 58.5 
Q 10.890625 67.625 15.140625 71.796875 
Q 19.390625 75.984375 28.609375 75.984375 
z
" id="DejaVuSans-102"/>
      <path d="M 19.671875 34.8125 
L 19.671875 8.109375 
L 35.5 8.109375 
Q 43.453125 8.109375 47.28125 11.40625 
Q 51.125 14.703125 51.125 21.484375 
Q 51.125 28.328125 47.28125 31.5625 
Q 43.453125 34.8125 35.5 34.8125 
z
M 19.671875 64.796875 
L 19.671875 42.828125 
L 34.28125 42.828125 
Q 41.5 42.828125 45.03125 45.53125 
Q 48.578125 48.25 48.578125 53.8125 
Q 48.578125 59.328125 45.03125 62.0625 
Q 41.5 64.796875 34.28125 64.796875 
z
M 9.8125 72.90625 
L 35.015625 72.90625 
Q 46.296875 72.90625 52.390625 68.21875 
Q 58.5 63.53125 58.5 54.890625 
Q 58.5 48.1875 55.375 44.234375 
Q 52.25 40.28125 46.1875 39.3125 
Q 53.46875 37.75 57.5 32.78125 
Q 61.53125 27.828125 61.53125 20.40625 
Q 61.53125 10.640625 54.890625 5.3125 
Q 48.25 0 35.984375 0 
L 9.8125 0 
z
" id="DejaVuSans-66"/>
      <path d="M 9.8125 72.90625 
L 23.09375 72.90625 
L 55.421875 11.921875 
L 55.421875 72.90625 
L 64.984375 72.90625 
L 64.984375 0 
L 51.703125 0 
L 19.390625 60.984375 
L 19.390625 0 
L 9.8125 0 
z
" id="DejaVuSans-78"/>
      <path d="M 9.421875 54.6875 
L 18.40625 54.6875 
L 18.40625 0 
L 9.421875 0 
z
M 9.421875 75.984375 
L 18.40625 75.984375 
L 18.40625 64.59375 
L 9.421875 64.59375 
z
" id="DejaVuSans-105"/>
      <path d="M 54.890625 33.015625 
L 54.890625 0 
L 45.90625 0 
L 45.90625 32.71875 
Q 45.90625 40.484375 42.875 44.328125 
Q 39.84375 48.1875 33.796875 48.1875 
Q 26.515625 48.1875 22.3125 43.546875 
Q 18.109375 38.921875 18.109375 30.90625 
L 18.109375 0 
L 9.078125 0 
L 9.078125 54.6875 
L 18.109375 54.6875 
L 18.109375 46.1875 
Q 21.34375 51.125 25.703125 53.5625 
Q 30.078125 56 35.796875 56 
Q 45.21875 56 50.046875 50.171875 
Q 54.890625 44.34375 54.890625 33.015625 
z
" id="DejaVuSans-110"/>
      <path d="M 4.890625 31.390625 
L 31.203125 31.390625 
L 31.203125 23.390625 
L 4.890625 23.390625 
z
" id="DejaVuSans-45"/>
      <path d="M 8.5 21.578125 
L 8.5 54.6875 
L 17.484375 54.6875 
L 17.484375 21.921875 
Q 17.484375 14.15625 20.5 10.265625 
Q 23.53125 6.390625 29.59375 6.390625 
Q 36.859375 6.390625 41.078125 11.03125 
Q 45.3125 15.671875 45.3125 23.6875 
L 45.3125 54.6875 
L 54.296875 54.6875 
L 54.296875 0 
L 45.3125 0 
L 45.3125 8.40625 
Q 42.046875 3.421875 37.71875 1 
Q 33.40625 -1.421875 27.6875 -1.421875 
Q 18.265625 -1.421875 13.375 4.4375 
Q 8.5 10.296875 8.5 21.578125 
z
M 31.109375 56 
z
" id="DejaVuSans-117"/>
      <path d="M 45.40625 27.984375 
Q 45.40625 37.75 41.375 43.109375 
Q 37.359375 48.484375 30.078125 48.484375 
Q 22.859375 48.484375 18.828125 43.109375 
Q 14.796875 37.75 14.796875 27.984375 
Q 14.796875 18.265625 18.828125 12.890625 
Q 22.859375 7.515625 30.078125 7.515625 
Q 37.359375 7.515625 41.375 12.890625 
Q 45.40625 18.265625 45.40625 27.984375 
z
M 54.390625 6.78125 
Q 54.390625 -7.171875 48.1875 -13.984375 
Q 42 -20.796875 29.203125 -20.796875 
Q 24.46875 -20.796875 20.265625 -20.09375 
Q 16.0625 -19.390625 12.109375 -17.921875 
L 12.109375 -9.1875 
Q 16.0625 -11.328125 19.921875 -12.34375 
Q 23.78125 -13.375 27.78125 -13.375 
Q 36.625 -13.375 41.015625 -8.765625 
Q 45.40625 -4.15625 45.40625 5.171875 
L 45.40625 9.625 
Q 42.625 4.78125 38.28125 2.390625 
Q 33.9375 0 27.875 0 
Q 17.828125 0 11.671875 7.65625 
Q 5.515625 15.328125 5.515625 27.984375 
Q 5.515625 40.671875 11.671875 48.328125 
Q 17.828125 56 27.875 56 
Q 33.9375 56 38.28125 53.609375 
Q 42.625 51.21875 45.40625 46.390625 
L 45.40625 54.6875 
L 54.390625 54.6875 
z
" id="DejaVuSans-103"/>
     </defs>
     <use xlink:href="#DejaVuSans-69"/>
     <use x="63.183594" xlink:href="#DejaVuSans-102"/>
     <use x="98.388672" xlink:href="#DejaVuSans-102"/>
     <use x="133.59375" xlink:href="#DejaVuSans-101"/>
     <use x="195.117188" xlink:href="#DejaVuSans-99"/>
     <use x="250.097656" xlink:href="#DejaVuSans-116"/>
     <use x="289.306641" xlink:href="#DejaVuSans-115"/>
     <use x="341.40625" xlink:href="#DejaVuSans-32"/>
     <use x="373.193359" xlink:href="#DejaVuSans-111"/>
     <use x="434.375" xlink:href="#DejaVuSans-102"/>
     <use x="469.580078" xlink:href="#DejaVuSans-32"/>
     <use x="501.367188" xlink:href="#DejaVuSans-66"/>
     <use x="569.970703" xlink:href="#DejaVuSans-78"/>
     <use x="644.775391" xlink:href="#DejaVuSans-32"/>
     <use x="676.5625" xlink:href="#DejaVuSans-102"/>
     <use x="711.767578" xlink:href="#DejaVuSans-105"/>
     <use x="739.550781" xlink:href="#DejaVuSans-110"/>
     <use x="802.929688" xlink:href="#DejaVuSans-101"/>
     <use x="864.453125" xlink:href="#DejaVuSans-45"/>
     <use x="900.537109" xlink:href="#DejaVuSans-116"/>
     <use x="939.746094" xlink:href="#DejaVuSans-117"/>
     <use x="1003.125" xlink:href="#DejaVuSans-110"/>
     <use x="1066.503906" xlink:href="#DejaVuSans-105"/>
     <use x="1094.287109" xlink:href="#DejaVuSans-110"/>
     <use x="1157.666016" xlink:href="#DejaVuSans-103"/>
    </g>
   </g>
   <g id="legend_1">
    <g id="patch_7">
     <path d="M 92.34375 215.84 
L 245 215.84 
Q 247 215.84 247 213.84 
L 247 156.1275 
Q 247 154.1275 245 154.1275 
L 92.34375 154.1275 
Q 90.34375 154.1275 90.34375 156.1275 
L 90.34375 213.84 
Q 90.34375 215.84 92.34375 215.84 
z
" style="fill:#ffffff;opacity:0.8;stroke:#cccccc;stroke-linejoin:miter;"/>
    </g>
    <g id="line2d_43">
     <path d="M 94.34375 162.225937 
L 114.34375 162.225937 
" style="fill:none;stroke:#1f77b4;stroke-linecap:square;stroke-width:1.5;"/>
    </g>
    <g id="line2d_44"/>
    <g id="text_23">
     <!-- P2P-BN (100 - no BN FT) -->
     <g transform="translate(122.34375 165.725937)scale(0.1 -0.1)">
      <defs>
       <path d="M 19.671875 64.796875 
L 19.671875 37.40625 
L 32.078125 37.40625 
Q 38.96875 37.40625 42.71875 40.96875 
Q 46.484375 44.53125 46.484375 51.125 
Q 46.484375 57.671875 42.71875 61.234375 
Q 38.96875 64.796875 32.078125 64.796875 
z
M 9.8125 72.90625 
L 32.078125 72.90625 
Q 44.34375 72.90625 50.609375 67.359375 
Q 56.890625 61.8125 56.890625 51.125 
Q 56.890625 40.328125 50.609375 34.8125 
Q 44.34375 29.296875 32.078125 29.296875 
L 19.671875 29.296875 
L 19.671875 0 
L 9.8125 0 
z
" id="DejaVuSans-80"/>
       <path d="M 9.8125 72.90625 
L 51.703125 72.90625 
L 51.703125 64.59375 
L 19.671875 64.59375 
L 19.671875 43.109375 
L 48.578125 43.109375 
L 48.578125 34.8125 
L 19.671875 34.8125 
L 19.671875 0 
L 9.8125 0 
z
" id="DejaVuSans-70"/>
      </defs>
      <use xlink:href="#DejaVuSans-80"/>
      <use x="60.302734" xlink:href="#DejaVuSans-50"/>
      <use x="123.925781" xlink:href="#DejaVuSans-80"/>
      <use x="181.978516" xlink:href="#DejaVuSans-45"/>
      <use x="214.4375" xlink:href="#DejaVuSans-66"/>
      <use x="283.041016" xlink:href="#DejaVuSans-78"/>
      <use x="357.845703" xlink:href="#DejaVuSans-32"/>
      <use x="389.632812" xlink:href="#DejaVuSans-40"/>
      <use x="428.646484" xlink:href="#DejaVuSans-49"/>
      <use x="492.269531" xlink:href="#DejaVuSans-48"/>
      <use x="555.892578" xlink:href="#DejaVuSans-48"/>
      <use x="619.515625" xlink:href="#DejaVuSans-32"/>
      <use x="651.302734" xlink:href="#DejaVuSans-45"/>
      <use x="687.386719" xlink:href="#DejaVuSans-32"/>
      <use x="719.173828" xlink:href="#DejaVuSans-110"/>
      <use x="782.552734" xlink:href="#DejaVuSans-111"/>
      <use x="843.734375" xlink:href="#DejaVuSans-32"/>
      <use x="875.521484" xlink:href="#DejaVuSans-66"/>
      <use x="944.125" xlink:href="#DejaVuSans-78"/>
      <use x="1018.929688" xlink:href="#DejaVuSans-32"/>
      <use x="1050.716797" xlink:href="#DejaVuSans-70"/>
      <use x="1106.486328" xlink:href="#DejaVuSans-84"/>
      <use x="1167.570312" xlink:href="#DejaVuSans-41"/>
     </g>
    </g>
    <g id="line2d_45">
     <path d="M 94.34375 176.904062 
L 114.34375 176.904062 
" style="fill:none;stroke:#ff7f0e;stroke-linecap:square;stroke-width:1.5;"/>
    </g>
    <g id="line2d_46"/>
    <g id="text_24">
     <!-- P2P-BN (300 - no BN FT) -->
     <g transform="translate(122.34375 180.404062)scale(0.1 -0.1)">
      <use xlink:href="#DejaVuSans-80"/>
      <use x="60.302734" xlink:href="#DejaVuSans-50"/>
      <use x="123.925781" xlink:href="#DejaVuSans-80"/>
      <use x="181.978516" xlink:href="#DejaVuSans-45"/>
      <use x="214.4375" xlink:href="#DejaVuSans-66"/>
      <use x="283.041016" xlink:href="#DejaVuSans-78"/>
      <use x="357.845703" xlink:href="#DejaVuSans-32"/>
      <use x="389.632812" xlink:href="#DejaVuSans-40"/>
      <use x="428.646484" xlink:href="#DejaVuSans-51"/>
      <use x="492.269531" xlink:href="#DejaVuSans-48"/>
      <use x="555.892578" xlink:href="#DejaVuSans-48"/>
      <use x="619.515625" xlink:href="#DejaVuSans-32"/>
      <use x="651.302734" xlink:href="#DejaVuSans-45"/>
      <use x="687.386719" xlink:href="#DejaVuSans-32"/>
      <use x="719.173828" xlink:href="#DejaVuSans-110"/>
      <use x="782.552734" xlink:href="#DejaVuSans-111"/>
      <use x="843.734375" xlink:href="#DejaVuSans-32"/>
      <use x="875.521484" xlink:href="#DejaVuSans-66"/>
      <use x="944.125" xlink:href="#DejaVuSans-78"/>
      <use x="1018.929688" xlink:href="#DejaVuSans-32"/>
      <use x="1050.716797" xlink:href="#DejaVuSans-70"/>
      <use x="1106.486328" xlink:href="#DejaVuSans-84"/>
      <use x="1167.570312" xlink:href="#DejaVuSans-41"/>
     </g>
    </g>
    <g id="line2d_47">
     <path d="M 94.34375 191.582187 
L 114.34375 191.582187 
" style="fill:none;stroke:#2ca02c;stroke-linecap:square;stroke-width:1.5;"/>
    </g>
    <g id="line2d_48"/>
    <g id="text_25">
     <!-- P2P-BN (100) -->
     <g transform="translate(122.34375 195.082187)scale(0.1 -0.1)">
      <use xlink:href="#DejaVuSans-80"/>
      <use x="60.302734" xlink:href="#DejaVuSans-50"/>
      <use x="123.925781" xlink:href="#DejaVuSans-80"/>
      <use x="181.978516" xlink:href="#DejaVuSans-45"/>
      <use x="214.4375" xlink:href="#DejaVuSans-66"/>
      <use x="283.041016" xlink:href="#DejaVuSans-78"/>
      <use x="357.845703" xlink:href="#DejaVuSans-32"/>
      <use x="389.632812" xlink:href="#DejaVuSans-40"/>
      <use x="428.646484" xlink:href="#DejaVuSans-49"/>
      <use x="492.269531" xlink:href="#DejaVuSans-48"/>
      <use x="555.892578" xlink:href="#DejaVuSans-48"/>
      <use x="619.515625" xlink:href="#DejaVuSans-41"/>
     </g>
    </g>
    <g id="line2d_49">
     <path d="M 94.34375 206.260312 
L 114.34375 206.260312 
" style="fill:none;stroke:#d62728;stroke-linecap:square;stroke-width:1.5;"/>
    </g>
    <g id="line2d_50"/>
    <g id="text_26">
     <!-- P2P-BN (300) -->
     <g transform="translate(122.34375 209.760312)scale(0.1 -0.1)">
      <use xlink:href="#DejaVuSans-80"/>
      <use x="60.302734" xlink:href="#DejaVuSans-50"/>
      <use x="123.925781" xlink:href="#DejaVuSans-80"/>
      <use x="181.978516" xlink:href="#DejaVuSans-45"/>
      <use x="214.4375" xlink:href="#DejaVuSans-66"/>
      <use x="283.041016" xlink:href="#DejaVuSans-78"/>
      <use x="357.845703" xlink:href="#DejaVuSans-32"/>
      <use x="389.632812" xlink:href="#DejaVuSans-40"/>
      <use x="428.646484" xlink:href="#DejaVuSans-51"/>
      <use x="492.269531" xlink:href="#DejaVuSans-48"/>
      <use x="555.892578" xlink:href="#DejaVuSans-48"/>
      <use x="619.515625" xlink:href="#DejaVuSans-41"/>
     </g>
    </g>
   </g>
  </g>
 </g>
 <defs>
  <clipPath id="pf5e243c721">
   <rect height="204.76" width="218.14" x="33.86" y="16.08"/>
  </clipPath>
 </defs>
</svg>
